<svg aria-hidden="true" style="position: absolute; width: 0; height: 0; overflow: hidden;" version="1.1"
     xmlns="http://www.w3.org/2000/svg" xmlns:xlink="http://www.w3.org/1999/xlink">
    <defs>
        <symbol id="icon-book" viewBox="0 0 31 32">
            <path d="M4.757 4.12c-0.001 0-0.002 0-0.003 0-0.294 0-0.571 0.115-0.78 0.323-0.211 0.211-0.328 0.491-0.328 0.79v16.688c0 0.612 0.5 1.111 1.114 1.113 2.591 0.006 6.931 0.546 9.925 3.679v-17.465c0-0.207-0.053-0.402-0.153-0.564-2.457-3.957-7.18-4.559-9.776-4.565z"></path>
            <path d="M27.454 21.921v-16.688c0-0.299-0.116-0.579-0.328-0.79-0.209-0.208-0.486-0.323-0.78-0.323-0.001 0-0.002 0-0.003 0-2.596 0.006-7.319 0.607-9.776 4.565-0.1 0.161-0.153 0.356-0.153 0.564v17.465c2.994-3.133 7.334-3.673 9.925-3.679 0.614-0.002 1.114-0.501 1.114-1.113z"></path>
            <path d="M29.989 7.969h-0.807v13.953c0 1.563-1.273 2.837-2.838 2.84-2.197 0.005-5.82 0.435-8.386 2.863 4.438-1.087 9.116-0.38 11.782 0.227 0.333 0.076 0.677-0.003 0.944-0.215 0.266-0.212 0.418-0.529 0.418-0.869v-17.687c0-0.614-0.499-1.113-1.113-1.113z"></path>
            <path d="M1.92 21.922v-13.953h-0.807c-0.613 0-1.113 0.499-1.113 1.113v17.686c0 0.34 0.152 0.657 0.418 0.869s0.61 0.291 0.944 0.215c2.666-0.608 7.344-1.314 11.782-0.227-2.566-2.428-6.189-2.858-8.386-2.863-1.565-0.004-2.838-1.278-2.838-2.84z"></path>
        </symbol>
        <symbol id="icon-menu" viewBox="0 0 32 32">
            <path d="M29.333 24.007c0 0.733-0.595 1.327-1.327 1.327h-10.68c-0.733 0-1.327-0.594-1.327-1.327s0.594-1.327 1.327-1.327h10.68c0.733 0 1.327 0.593 1.327 1.327zM29.333 16c0 0.733-0.595 1.327-1.327 1.327h-24.013c-0.733 0-1.327-0.594-1.327-1.327s0.594-1.327 1.327-1.327h24.013c0.733 0 1.327 0.595 1.327 1.327zM28.007 9.32c0.733 0 1.327-0.594 1.327-1.327s-0.594-1.327-1.327-1.327h-16.013c-0.733 0-1.327 0.594-1.327 1.327s0.594 1.327 1.327 1.327h16.013z"></path>
        </symbol>
        <symbol id="icon-close" viewBox="0 0 24 24">
            <path stroke-linejoin="miter" stroke-linecap="round" stroke-miterlimit="4" stroke-width="2" d="M9 6l6 6 6-6M9 18l6-6 6 6"></path>
        </symbol>
        <symbol id="icon-lamp" viewBox="0 0 32 32">
            <path d="M15.781 0.075c-0.281 0.15-0.281 0.169-0.281 2.156v1.9l0.156 0.15c0.162 0.169 0.319 0.194 0.55 0.088 0.275-0.125 0.294-0.269 0.294-2.15s-0.019-2.025-0.294-2.15c-0.188-0.087-0.262-0.081-0.425 0.006z"></path>
            <path d="M7.888 2.356c-0.131 0.050-0.275 0.388-0.225 0.538 0.044 0.163 1.944 3.15 2.038 3.206 0.031 0.019 0.156 0.037 0.269 0.044 0.294 0.006 0.469-0.162 0.469-0.456 0-0.188-0.162-0.487-0.912-1.662-0.5-0.788-0.981-1.494-1.063-1.575-0.144-0.131-0.387-0.169-0.575-0.094z"></path>
            <path d="M23.887 2.5c-0.081 0.038-0.525 0.644-1.137 1.575-0.769 1.169-1 1.563-1 1.719 0 0.444 0.512 0.619 0.825 0.281 0.087-0.094 0.569-0.787 1.075-1.544 1-1.506 1.056-1.644 0.756-1.938-0.156-0.163-0.281-0.188-0.519-0.094z"></path>
            <path d="M14.813 6.969c-3.094 0.463-5.625 2.594-6.625 5.581-0.269 0.8-0.381 1.55-0.388 2.512 0 1.369 0.275 2.556 0.869 3.719 0.406 0.806 0.825 1.381 1.55 2.15 0.35 0.369 0.713 0.8 0.806 0.956 0.381 0.65 0.637 1.731 0.706 2.944 0.031 0.594 0.063 0.769 0.156 0.894l0.119 0.15h3.981c3.413-0.006 4-0.019 4.106-0.094 0.1-0.081 0.131-0.231 0.2-1.081 0.144-1.788 0.481-2.706 1.331-3.606 1.156-1.225 1.719-2.119 2.156-3.425 0.331-0.994 0.425-1.694 0.387-2.85-0.050-1.575-0.363-2.644-1.156-3.975-1.656-2.787-4.981-4.356-8.2-3.875zM17.381 8.063c1.644 0.338 2.944 1.094 4.050 2.344 1.9 2.169 2.3 5.331 1 7.925-0.375 0.731-0.675 1.15-1.337 1.856-0.319 0.337-0.669 0.744-0.781 0.906-0.475 0.694-0.819 1.694-0.944 2.75-0.038 0.306-0.081 0.681-0.094 0.831l-0.031 0.262h-6.481l-0.044-0.488c-0.056-0.725-0.262-1.725-0.463-2.231-0.3-0.769-0.594-1.225-1.281-1.956-0.738-0.781-1.037-1.194-1.406-1.925-0.519-1.025-0.756-2.031-0.756-3.219 0-1.969 0.713-3.694 2.1-5.081 1.050-1.050 2.344-1.731 3.806-2.006 0.694-0.131 1.938-0.112 2.663 0.031z"></path>
            <path d="M15.656 9.156c-0.2 0.194-0.206 0.488-0.012 0.681 0.119 0.119 0.244 0.156 0.644 0.188 1.975 0.181 3.531 1.162 4.419 2.787 0.413 0.744 0.587 1.35 0.663 2.225 0.044 0.481 0.075 0.625 0.181 0.731 0.181 0.181 0.531 0.175 0.712-0.006 0.125-0.119 0.137-0.194 0.125-0.644-0.063-2.219-1.406-4.319-3.431-5.381-0.85-0.444-1.956-0.738-2.788-0.738-0.3 0-0.387 0.025-0.512 0.156z"></path>
            <path d="M2.825 7.769c-0.156 0.169-0.181 0.456-0.044 0.644 0.112 0.169 3.206 1.838 3.4 1.838 0.188 0 0.506-0.325 0.506-0.519 0-0.088-0.050-0.213-0.106-0.281-0.175-0.206-3.231-1.825-3.444-1.825-0.106 0-0.231 0.056-0.313 0.144z"></path>
            <path d="M28.631 7.694c-0.462 0.181-3.094 1.656-3.194 1.794-0.163 0.2-0.156 0.394 0.006 0.6 0.238 0.3 0.419 0.244 2.075-0.656 0.831-0.45 1.575-0.875 1.656-0.95 0.238-0.219 0.175-0.612-0.119-0.763-0.2-0.106-0.219-0.106-0.425-0.025z"></path>
            <path d="M12.356 26.625c-0.287 0.087-0.613 0.375-0.738 0.65-0.275 0.613-0.031 1.294 0.588 1.606 0.225 0.119 0.381 0.119 3.875 0.106l3.637-0.019 0.225-0.15c0.35-0.238 0.512-0.525 0.544-0.938 0.044-0.587-0.306-1.106-0.85-1.256-0.281-0.075-7.019-0.075-7.281 0zM19.4 27.663c0.056 0.050 0.1 0.119 0.1 0.144 0 0.181-0.225 0.194-3.531 0.181-3.169-0.019-3.363-0.025-3.431-0.131-0.056-0.094-0.044-0.131 0.050-0.206 0.106-0.075 0.65-0.087 3.419-0.087 2.913 0 3.306 0.012 3.394 0.1z"></path>
            <path d="M13.219 29.663c-0.287 0.15-0.581 0.462-0.662 0.7-0.037 0.119-0.056 0.369-0.044 0.55 0.037 0.413 0.269 0.738 0.675 0.944 0.275 0.144 0.306 0.144 2.812 0.144 2.331 0 2.55-0.012 2.781-0.119 0.894-0.413 0.988-1.581 0.163-2.137l-0.225-0.15-2.656-0.019c-2.313-0.012-2.681 0-2.844 0.087zM18.488 30.762c0.019 0.137-0.012 0.175-0.125 0.206-0.081 0.019-1.181 0.025-2.45 0.019-2.069-0.019-2.313-0.031-2.369-0.125-0.050-0.075-0.044-0.131 0.012-0.2 0.075-0.087 0.35-0.1 2.5-0.087l2.413 0.019 0.019 0.169z"></path>
        </symbol>
    </defs>
</svg>
